<svg xmlns="http://www.w3.org/2000/svg" viewBox="0 0 1200 1200">
  <path d="M875.1,307.09c-22.26,1.76-43,3-63.66,5.11-66.17,6.73-131.53,17.89-195.2,37.63-59.79,18.54-116.47,43.43-166,82.6C376,491.21,341.06,568.28,343.48,662.71c1,38.71,7.82,76.44,18.07,113.66.34,1.23.91,2.38,1.92,5,1.86-3.5,3.15-5.9,4.41-8.31,57.76-109.74,134.32-203.36,236-275.49q5.8-4.12,11.71-8.09c14.73-10,29.62-8.27,38.29,4.32s4.91,27.55-9.51,37.31a641.15,641.15,0,0,0-119,103.64Q404.76,769.4,354.17,943c-4.57,15.64-17.38,24-31.42,20-14.49-4.07-22.11-17.4-17.32-33,7.73-25.14,16.57-49.94,24.64-75a16.87,16.87,0,0,0,0-10.16c-21.82-60.61-37.26-122.57-37.73-187.37C291.49,536.36,343.59,443,443,375.33c63.13-43,133.64-68.85,207.24-87,93.12-22.9,187.89-32.31,283.6-33.37,14.14-.16,24,6.56,27.32,18.16,3.39,12-1.11,21.86-13.16,30-16.09,10.91-27.31,26.23-37.08,42.63-21.21,35.58-32.23,74.72-40,115-9.69,50.54-8.3,101.82-11.22,152.84-3.79,66.23-23.39,126.77-69.67,176.39-36.92,39.59-83.29,63-134.85,76.89-60,16.11-121.21,18.56-182.85,14.06-14.54-1.06-23.9-9.51-25.47-21.6-2.22-17,10.24-30,28.06-28.85C510,832.87,545,833.22,580,829.48c35.81-3.83,70.72-11.34,103.83-25.91,67.89-29.87,107.48-82.3,120.29-154.6,4.3-24.25,5.61-49.23,6.1-73.93,1.17-58.73,6.4-116.81,22.71-173.49C842,370,854.41,339.9,872.3,312.22,873,311.16,873.53,310,875.1,307.09Z"/></svg>