<svg version="1.1" id="Pinterest_badge" xmlns="http://www.w3.org/2000/svg" xmlns:xlink="http://www.w3.org/1999/xlink" x="0px"
	 y="0px" viewBox="0 0 245.5 245.5" style="enable-background:new 0 0 245.5 245.5;" xml:space="preserve" class="social-icon">
                  <path fill="#ec2327" d="M123.1,0.7c-67.4,0-122,54.6-122,122c0,51.7,32.1,95.8,77.5,113.6c-1.1-9.7-2-24.5,0.4-35c2.2-9.5,14.3-60.6,14.3-60.6
                	s-3.6-7.3-3.6-18.1c0-17,9.8-29.6,22.1-29.6c10.4,0,15.4,7.8,15.4,17.2c0,10.5-6.7,26.1-10.1,40.6c-2.9,12.1,6.1,22,18.1,22
                	c21.7,0,38.3-22.9,38.3-55.9c0-29.2-21-49.6-50.9-49.6c-34.7,0-55.1,26-55.1,52.9c0,10.5,4,21.7,9.1,27.8c1,1.2,1.1,2.3,0.8,3.5
                	c-0.9,3.9-3,12.1-3.4,13.8c-0.5,2.2-1.8,2.7-4.1,1.6c-15.2-7.1-24.8-29.4-24.8-47.3c0-38.5,28-73.8,80.6-73.8
                	c42.3,0,75.2,30.1,75.2,70.4c0,42-26.5,75.9-63.3,75.9c-12.4,0-24-6.4-28-14c0,0-6.1,23.3-7.6,29c-2.8,10.6-10.2,23.9-15.2,32
                	c11.4,3.5,23.5,5.4,36.1,5.4c67.4,0,122-54.6,122-122C245,55.3,190.4,0.7,123.1,0.7z"/>
</svg>