<svg xmlns="http://www.w3.org/2000/svg" viewBox="0 0 1200 1200">
  <path class="cls-1" d="M194,444.43a25.51,25.51,0,0,0-25.51-25.51H48.65a25.51,25.51,0,1,0,0,51H168.53A25.5,25.5,0,0,0,194,444.43Z"/>
  <path class="cls-1" d="M194,546.45a25.51,25.51,0,0,0-25.51-25.51H99.67a25.51,25.51,0,1,0,0,51h68.87A25.5,25.5,0,0,0,194,546.45Z"/>
  <path class="cls-1" d="M194,648.47A25.51,25.51,0,0,0,168.53,623H148.13a25.51,25.51,0,1,0,0,51h20.41A25.5,25.5,0,0,0,194,648.47Z"/>
  <path class="cls-1" d="M1113,581l-110.38-38.3V434.22h0a50.91,50.91,0,0,0-50.91-51H808.73V296.49A25.51,25.51,0,0,0,783.22,271h-528a25.51,25.51,0,0,0-25.51,25.51V796.41H194.61c-14.3,0-26.34,11.7-26.08,26a25.51,25.51,0,0,0,25.5,25H307.6a95.62,95.62,0,0,0,191.16,0H793.48a95.62,95.62,0,0,0,191.16,0h119.94a25.51,25.51,0,0,0,25.51-25.51V605.11A25.5,25.5,0,0,0,1113,581ZM403.18,889.5a44.63,44.63,0,1,1,44.63-44.63A44.69,44.69,0,0,1,403.18,889.5ZM757.71,408.72V796.41H485.6a95.56,95.56,0,0,0-164.82,0h-40V322h477ZM889.07,889.5a44.63,44.63,0,1,1,44.63-44.63A44.69,44.69,0,0,1,889.07,889.5Zm190-93.1H971.48a95.55,95.55,0,0,0-162.75-3.34V434.23H951.56L951.47,574v0a4.86,4.86,0,0,0,3,4.38l124.6,44.87V796.41Z"/>
</svg>