<svg xmlns="http://www.w3.org/2000/svg" viewBox="0 0 1200 1200"><path d="M607.27,1023.8A434.5,434.5,0,0,1,499.11,168.52a27.91,27.91,0,0,1,28.28,45A350.68,350.68,0,0,0,795.7,790a346.84,346.84,0,0,0,159.87-38.47,27.91,27.91,0,0,1,37.52,37.69A434.4,434.4,0,0,1,607.27,1023.8ZM434.61,252.42A381.71,381.71,0,0,0,309.51,355.5,378.62,378.62,0,0,0,896.92,833.21a406.59,406.59,0,0,1-462.3-580.79Z"/><path d="M692,417c-13.25,0-24-12.29-24-27.45V245.45c0-15.16,10.75-27.45,24-27.45s24,12.29,24,27.45v144.1C716,404.71,705.25,417,692,417Z"/><path d="M792,317.5c0,13.25-12.29,24-27.45,24H620.45c-15.16,0-27.45-10.75-27.45-24s12.29-24,27.45-24h144.1C779.71,293.5,792,304.25,792,317.5Z"/><path d="M864.08,644c-11.12,0-20.14-10.31-20.14-23V500c0-12.72,9-23,20.14-23s20.14,10.31,20.14,23V621C884.22,633.69,875.2,644,864.08,644Z"/><path d="M948,560.5c0,11.12-10.31,20.14-23,20.14H804c-12.72,0-23-9-23-20.14s10.31-20.14,23-20.14H925C937.69,540.36,948,549.38,948,560.5Z"/><path d="M910.21,309c-7.66,0-13.87-7.1-13.87-15.86V209.86c0-8.76,6.21-15.86,13.87-15.86s13.87,7.1,13.87,15.86v83.28C924.08,301.9,917.87,309,910.21,309Z"/><path d="M968,251.5c0,7.66-7.1,13.87-15.86,13.87H868.86c-8.76,0-15.86-6.21-15.86-13.87s7.1-13.87,15.86-13.87h83.28C960.9,237.63,968,243.84,968,251.5Z"/></svg>