<svg xmlns="http://www.w3.org/2000/svg" viewBox="0 0 1176 1176"><defs><style>.cls-1{fill:#ed1c24;}.cls-2{fill:#fff;}.cls-3{fill:#1a4789;}</style></defs><rect class="cls-1" x="473.67" y="316" width="531.33" height="59"/><rect class="cls-2" x="473.67" y="375" width="531.33" height="59"/><rect class="cls-1" x="473.67" y="434" width="531.33" height="59"/><rect class="cls-2" x="473.67" y="493" width="531.33" height="59"/><rect class="cls-1" x="473.67" y="552" width="531.33" height="59"/><rect class="cls-2" x="178" y="611" width="827" height="59"/><rect class="cls-1" x="178" y="670" width="827" height="59"/><rect class="cls-2" x="178" y="729" width="827" height="59"/><rect class="cls-1" x="178" y="788" width="827" height="59"/><rect class="cls-2" x="178" y="847" width="827" height="59"/><rect class="cls-3" x="178" y="316" width="295.99" height="295"/><polygon class="cls-2" points="263 357.5 277.69 387.27 310.55 392.05 286.78 415.23 292.39 447.95 263 432.5 233.61 447.95 239.22 415.23 215.45 392.05 248.31 387.27 263 357.5"/><polygon class="cls-2" points="386 357.5 400.69 387.27 433.55 392.05 409.78 415.23 415.39 447.95 386 432.5 356.61 447.95 362.22 415.23 338.45 392.05 371.31 387.27 386 357.5"/><polygon class="cls-2" points="263 476.5 277.69 506.27 310.55 511.05 286.78 534.23 292.39 566.95 263 551.5 233.61 566.95 239.22 534.23 215.45 511.05 248.31 506.27 263 476.5"/><polygon class="cls-2" points="386 466 400.69 495.77 433.55 500.55 409.78 523.73 415.39 556.45 386 541 356.61 556.45 362.22 523.73 338.45 500.55 371.31 495.77 386 466"/></svg>