<?xml version="1.0" encoding="utf-8"?>
<!-- Generator: Adobe Illustrator 16.0.0, SVG Export Plug-In . SVG Version: 6.00 Build 0)  -->
<!DOCTYPE svg PUBLIC "-//W3C//DTD SVG 1.1//EN" "http://www.w3.org/Graphics/SVG/1.1/DTD/svg11.dtd">
<svg version="1.1" xmlns="http://www.w3.org/2000/svg" xmlns:xlink="http://www.w3.org/1999/xlink" x="0px" y="0px"
	 width="835.45801px" height="359.98242px" viewBox="0 0 835.45801 359.98242" enable-background="new 0 0 835.45801 359.98242"
	 xml:space="preserve">
<g id="Black_Logo">
	<path id="Fohm" d="M809.34277,242.87988c-0.0166,0.01465-1.90918,2.30273-5.06055,5.72266
		c-3.15137,3.4209-7.56152,7.97363-12.61035,12.52051s-10.73828,9.08887-16.44727,12.48438
		c-5.70898,3.39648-11.4375,5.64844-16.56934,5.61523c-3.00488-0.01953-2.25781-5.78418,0.45703-14.8457
		c2.71387-9.06055,7.39551-21.41797,12.26074-34.62012s9.91211-27.24902,13.3584-39.69141s5.29004-23.27832,3.74805-30.05859
		c-2.19824-9.66602-6.89941-14.34131-13.11719-15.33691c-6.21875-0.99512-13.9541,1.68945-22.22461,6.74316
		c-8.27051,5.05322-17.07422,12.47559-25.42773,20.95508s-16.25684,18.0166-22.72656,27.30078
		c1.09082-3.27246,2.09668-6.41504,2.9873-9.44629c0.8916-3.03125,1.66797-5.95215,2.30273-8.78125
		c0.63379-2.83008,1.125-5.56836,1.44434-8.23535c0.31934-2.6665,0.46777-5.26172,0.41504-7.80469
		c-0.25586-12.56543-4.47656-19.11328-11.37695-20.72998s-16.48242,1.69775-27.46094,8.85742s-23.35547,18.16406-35.84766,31.92725
		c-12.49219,13.76367-25.09766,30.28613-36.53613,48.48047l7.66309-22.2627l7.66309-22.26367l7.66309-22.26318l7.66309-22.26318
		l-8.09473-0.021l-8.0957-0.021l-8.0957-0.021l-8.09473-0.021c-0.71387,0.01953-1.40234,0.14404-2.04785,0.35986
		c-0.64453,0.21533-1.24805,0.52197-1.79297,0.90479s-1.0332,0.84131-1.44727,1.36133
		c-0.41406,0.52051-0.75586,1.10205-1.00879,1.73047c-0.00098,0.00293-3.9209,8.17188-10.30566,20.41699
		s-15.23438,28.56543-25.0957,44.87207s-20.73438,32.59766-31.16602,44.78613
		c-10.43066,12.1875-20.41992,20.27051-28.51465,20.15918c-3.36426-0.04688-1.85254-7.58984,1.85352-19.0752
		c3.70605-11.48438,9.60645-26.91113,15.02051-42.72461c5.41504-15.81348,10.34375-32.01367,12.10645-45.04639
		s0.3584-22.89697-6.8916-26.03857c-9.52344-4.12646-21.17871-0.4082-33.44336,7.69531
		c-12.26465,8.10303-25.13867,20.59131-37.09961,34.00488c-11.96094,13.41309-23.00977,27.75293-31.62402,39.55762
		c-8.61328,11.80469-14.79199,21.07617-17.01318,24.35254l16.9751-50.4502l16.97559-50.44922l16.97559-50.44971l16.97559-50.44971
		c0,0-2.48145,0.00098-6.20508,0.00293s-8.68848,0.00488-13.65527,0.00732s-9.93555,0.00537-13.66406,0.00732
		c-3.73047,0.00195-6.2207,0.00293-6.23242,0.00293c-0.78711,0-1.54297,0.12988-2.24902,0.36963
		c-0.70605,0.23926-1.36035,0.58838-1.94531,1.02734s-1.09766,0.9668-1.52051,1.56348
		c-0.42188,0.59717-0.75195,1.26318-0.97168,1.97803c0,0-2.88379,8.49658-7.37842,21.62842
		c-4.49463,13.13135-10.59912,30.89795-17.04053,49.4375s-13.21924,37.85156-19.06006,54.07568
		c-5.84131,16.22363-10.74512,29.3584-13.43848,35.54297c-3.43701,7.43359-7.77588,13.01172-12.33008,17.13965
		s-9.32373,6.80664-13.62207,8.44043s-8.125,2.22363-10.79346,2.17383c-2.66895-0.04883-4.1792-0.73633-3.84473-1.65723
		c7.62939-20.99121,10.3252-37.68164,9.8291-50.88086c-0.49512-13.19922-4.18213-22.90723-9.31738-29.93262
		c-5.13477-7.02539-11.71875-11.36768-18.0083-13.83643s-12.28467-3.06348-16.24365-2.59326l-32.43506,1.58008l-32.43506,1.58057
		l-32.43555,1.58057l-32.43506,1.58008c2.71777-9.71094,6.47705-20.67285,11.09131-31.66846s10.08398-22.02539,16.22314-31.87109
		c6.13916-9.84521,12.94775-18.50732,20.23926-24.76758s15.06689-10.11914,23.13867-10.35889
		c6.76367-0.20117,12.31689,1.39453,16.87109,4.17139s8.10889,6.73486,10.87451,11.25928
		c2.76562,4.52393,4.74268,9.61426,6.1416,14.65527c1.39941,5.04102,2.22021,10.0332,2.67383,14.36133
		c0.37354,3.56055,1.91699,6.125,4.021,7.75488s4.76807,2.32471,7.3833,2.14453s5.18164-1.23535,7.08887-3.10547
		c1.90771-1.86963,3.15625-4.5542,3.13721-7.99316c-0.00635-1.09766-0.17529-6.25537-1.14355-13.52783
		s-2.73535-16.65967-5.93701-26.21631s-7.83789-19.28369-14.54541-27.23535c-6.70703-7.95117-15.48486-14.12793-26.96875-16.58398
		c-10.64893-2.27734-22.39893-0.53174-34.52148,4.85547c-12.12305,5.38721-24.61914,14.41602-36.76123,26.70557
		c-12.1416,12.28955-23.9292,27.84033-34.63525,46.27051s-20.33057,39.74023-28.14648,63.54932
		c-5.18604,0.23438-10.31055,0.47168-15.08203,0.6958s-9.18994,0.43506-12.96436,0.61719
		c-3.77441,0.18262-6.9043,0.33691-9.09863,0.44727s-3.45312,0.17676-3.48535,0.18408
		c-0.4541,0.04736-1.13184,0.24219-1.86182,0.61328c-0.72998,0.37061-1.51318,0.91699-2.1792,1.66699
		s-1.21436,1.7041-1.47559,2.89014c-0.26123,1.18555-0.23535,2.60303,0.24854,4.28076l-0.00244,0.00342l-0.00195,0.00342
		l-0.00195,0.00342l-0.00244,0.00342l3.84229,9.27881l3.84277,9.27881l3.84229,9.2793l3.84229,9.27832l4.91162-0.9248
		l4.91162-0.92383l4.91113-0.92383l4.91162-0.92383c-0.56396,2.91113-2.29639,10.54102-5.48438,20.91211
		c-3.18799,10.37012-7.83203,23.48047-14.21924,37.35254s-14.51758,28.50391-24.6792,41.91699
		c-10.16162,13.41406-22.354,25.60938-36.86523,34.60645c-2.45947,1.52441-3.96729,3.7168-4.63281,6.09277
		c-0.66602,2.37695-0.48975,4.9375,0.41699,7.20117s2.54443,4.22949,4.80273,5.41602s5.13623,1.59375,8.52441,0.73828
		c25.00098-6.31055,45.20605-18.20508,61.54883-32.87891c16.34229-14.6748,28.82275-32.12891,38.37354-49.55859
		c9.55127-17.42969,16.17334-34.83398,20.7998-49.4082s7.25781-26.31738,8.82666-32.42578l16.05713-2.97363l16.05762-2.97363
		l16.05762-2.97266l16.05713-2.97363c-15.58447,20.54199-25.1416,39.89062-30.01758,57.34277
		c-4.87549,17.45215-5.06982,33.00586-1.92822,45.95801s9.61914,23.30078,18.08643,30.34082
		c8.46777,7.04102,18.92529,10.77344,30.02783,10.49316c10.7207-0.27051,20.52051-2.92676,29.32764-7.02051
		c8.80713-4.09473,16.62256-9.62891,23.37549-15.65527s12.44336-12.54785,17.00098-18.61621s7.98291-11.68555,10.20508-15.90625
		c2.4585,0.49414,5.22021,0.7793,8.14551,0.87695c2.92578,0.09766,6.01562,0.00781,9.12988-0.25195s6.25391-0.6875,9.2793-1.26562
		c3.02539-0.57715,5.93652-1.30371,8.59521-2.16016c0,0-1.16357,3.07031-2.9082,7.73828
		c-1.74463,4.66699-4.0708,10.93164-6.39551,17.32129s-4.64893,12.90234-6.38916,18.06738
		c-1.74072,5.16406-2.89795,8.98047-2.88965,9.97461c0.00928,1.06836,0.20605,2.05078,0.55566,2.9248
		s0.85156,1.63965,1.47217,2.27246s1.35889,1.13477,2.18018,1.48145s1.72607,0.53906,2.6792,0.55371l9.98291-0.00195l9.9834-0.00195
		l9.9834-0.00195l9.98291-0.00195c0,0,4.72314-7.15625,12.00635-17.85059c7.28271-10.69336,17.125-24.9248,27.36328-39.07422
		s20.87207-28.21777,29.73926-38.58496c8.86621-10.36719,15.96484-17.0332,19.13184-16.37988
		c2.50781,0.51855,0.13477,7.75195-3.91699,18.31543c-4.05273,10.56348-9.7832,24.45703-13.98926,38.2959
		s-6.8877,27.62207-4.84375,37.96582c2.04492,10.34277,8.81641,17.24512,23.51758,17.32227
		c9.27734,0.04883,18.68262-2.47949,27.5918-6.31934s17.32324-8.99121,24.61719-14.18848s13.46875-10.44141,17.90039-14.46582
		c4.43066-4.02441,7.11914-6.83008,7.44043-7.15137c0,0-0.7207,1.93164-1.8125,4.87207s-2.55469,6.88965-4.04102,10.92578
		s-2.99707,8.1582-4.18164,11.44434c-1.18457,3.28711-2.04395,5.73828-2.22949,6.43066
		c-0.28027,1.0459-0.27637,2.09766-0.04297,3.08594c0.2334,0.9873,0.69531,1.91309,1.3291,2.70605s1.43945,1.52539,2.35938,1.9873
		s1.95508,0.79199,3.04785,0.79199c0.0166,0,1.81543,0,4.50684,0c2.69043,0,6.27148,0.00098,9.85156,0s7.15723,0,9.83984,0
		s4.4707,0,4.4707,0s4.75781-7.4248,11.9834-18.35645c7.22461-10.93164,16.91699-25.4834,26.78711-39.81348
		s19.91699-28.49414,27.85059-38.68848c7.93359-10.19531,13.75391-16.44727,15.1709-14.97363
		c1.2334,1.2832,0.31738,5.62891-1.90918,12.11426c-2.22754,6.48633-5.7666,15.10449-9.78223,24.92578
		c-4.0166,9.82129-8.50879,20.84375-12.6416,32.13477c-4.13379,11.29102-7.9082,22.84961-10.4873,33.74219
		c-0.32031,1.35352-0.30078,2.5791-0.03125,3.65527s0.78906,2.00391,1.46973,2.7627s1.52148,1.41797,2.43457,1.81738
		c0.91211,0.39941,1.89551,0.67969,2.86133,0.67969c0.0166,0,1.82324,0,4.52539,0s6.29883,0.00098,9.89355,0s7.1875,0,9.88184,0
		s4.48926,0,4.48926,0c2.95996-5,8.27051-14.41699,14.79297-25.34863c6.52344-10.92969,14.25879-23.66699,22.06934-35.9248
		c7.80957-12.25586,15.69531-24.08887,22.5166-33.24707c6.82227-9.1582,12.58008-15.6709,16.13672-17.30762
		c1.71875-0.79102,1.99316,0.7959,1.31738,4.00488c-0.67676,3.20801-2.30371,8.03027-4.38867,13.70605
		s-4.62891,12.2002-7.13672,18.80957c-2.50781,6.61035-4.98047,13.30469-6.9248,19.31543
		c-4.18164,12.92676-5.7168,22.8584-5.50879,30.49023s2.15918,12.96387,4.9502,16.69043
		c2.79102,3.72754,6.42188,5.84863,9.98828,7.06055c3.56738,1.21191,7.07031,1.51367,9.60742,1.60059
		c11.1582,0.38281,22.80078-3.32031,33.99512-9.09863s21.94043-13.63086,31.30273-21.5459s17.34277-15.89258,23.00684-21.91992
		c5.66309-6.02734,9.00977-10.10547,9.10645-10.21973c2.52051-3.00488,3.44043-6.03809,3.24805-8.75098
		s-1.49609-5.10742-3.4209-6.83594c-1.92578-1.72852-4.47266-2.79297-7.15039-2.8457
		C814.60254,239.60547,811.79297,240.56445,809.34277,242.87988z M311.56982,192.76953
		c-8.85986,0.1748-15.83008,2.98535-20.979,7.37012c-5.14893,4.38379-8.47656,10.34082-10.05078,16.80957
		c-1.57422,6.46777-1.39502,13.44629,0.46875,19.87305c1.86426,6.42578,5.41357,12.2998,10.57959,16.55859
		c-5.51074,12.62402-13.90381,23.49707-22.71777,31.13965s-18.04834,12.05469-25.24219,11.75684
		c-7.19336-0.29785-12.3457-5.30566-12.99463-16.50293c-0.64941-11.19629,3.20459-28.58301,14.02344-53.6377
		c8.51904-19.72852,17.10986-33.40527,25.1665-42.3916c8.05664-8.98584,15.57959-13.28125,21.96289-14.24707
		s11.62744,1.39795,15.12646,5.73047C310.41211,179.56055,312.16602,185.86133,311.56982,192.76953z"/>
</g>
<g id="Blue_Logo" display="none">
	<path id="Fohm_1_" display="inline" fill="#4198D3" d="M809.34277,242.87988c-0.06543,0.06152-30.16211,36.47363-50.6875,36.34277
		c-12.01953-0.07617,35.99219-92.09473,29.82422-119.21582c-8.79395-38.66504-57.61816,2.52734-83.49609,39.66211
		c4.36426-13.08984,7.3584-24.0957,7.14941-34.26758c-1.02539-50.26172-65.46875-4.24316-111.22168,68.53516l30.65234-89.05273
		l-32.38086-0.08398c-2.8584,0.07715-5.28516,1.84277-6.29688,4.35645c-0.00488,0.0127-62.70508,130.67871-95.08203,130.23438
		c-13.4541-0.18652,51.08984-120.31836,22.08887-132.88477C481.79883,130,409.59717,239.00879,400.7124,252.11621
		l67.90186-201.79883c0,0-39.70996,0.02051-39.75684,0.02051c-3.14746,0-5.80859,2.0791-6.68652,4.93848
		c0,0-46.14404,135.94727-56.91748,160.68457c-13.74707,29.73535-41.92871,29.78027-40.59033,26.09668
		c30.51709-83.96387-17.90527-99.12402-33.74023-97.24316l-129.74072,6.32129
		c10.87109-38.84277,38.40381-97.70703,70.69238-98.66602c27.05469-0.80371,34.74609,27.13574,36.56104,44.44727
		c1.49365,14.24121,21.70703,12.55664,21.63037-1.19922c-0.0249-4.3916-2.6582-73.73828-48.59473-83.56348
		c-42.59668-9.1084-102.80176,46.14453-134.06445,141.38086c-20.74414,0.93848-40.50244,1.91504-40.63037,1.94434
		c-1.81738,0.18945-7.20215,2.74121-5.26807,9.45117l-0.00879,0.01367l15.36963,37.11523l19.646-3.69629
		c-2.25635,11.64355-23.20361,98.79883-81.24805,134.78809c-9.83887,6.09961-4.44092,22.86816,9.11133,19.44824
		c100.00391-25.24023,123.27295-139.83691,129.54883-164.27148l64.22949-11.89355
		c-62.33789,82.16699-28.24072,145.25781,16.16846,144.13477c42.88379-1.08496,71.021-40.31738,79.90918-57.19824
		c9.83447,1.97461,24.5166,0.625,35.1499-2.80078c0,0-18.61572,49.125-18.58252,53.10156
		c0.03662,4.27441,3.07471,7.1748,6.88721,7.23242l39.93262-0.00781c0,0,75.57275-114.50391,88.24072-111.88965
		c10.03125,2.07227-58.03662,111.5918,0.76758,111.89941c37.10938,0.19434,76.26562-40.84082,77.5498-42.125
		c0,0-11.52246,30.90234-12.26465,33.67285c-1.12305,4.18652,2.32227,8.44727,6.69336,8.43066
		c0.06445,0,28.66895-0.00977,28.66895-0.00977s76.125-117.58691,81.79199-111.69141
		c4.93164,5.13086-24.50293,59.35449-34.82031,102.92578c-1.28125,5.41602,2.87207,8.77539,6.73438,8.77539
		c0.06348,0,28.79004-0.00977,28.79004-0.00977c11.83887-20.72363,61.28809-105.13965,75.51562-111.6875
		c6.875-3.16406-9.35449,31.79883-17.13281,55.84473c-16.72656,51.70898,8.89062,55.49512,19.03711,55.84277
		c44.63184,1.53223,97.02637-62.32422,97.41113-62.78418C834.68848,246.07031,819.14551,233.61621,809.34277,242.87988z
		 M311.56982,192.76953c-35.43945,0.69922-40.64551,43.5752-19.98145,60.61133
		c-22.04297,50.49707-90.20605,72.97559-46.93115-27.24414C278.73389,147.22168,313.95508,165.1377,311.56982,192.76953z"/>
</g>
</svg>
