<?xml version="1.0" encoding="utf-8"?>
<!-- Generator: Adobe Illustrator 16.0.0, SVG Export Plug-In . SVG Version: 6.00 Build 0)  -->
<!DOCTYPE svg PUBLIC "-//W3C//DTD SVG 1.1//EN" "http://www.w3.org/Graphics/SVG/1.1/DTD/svg11.dtd">
<svg version="1.1" xmlns="http://www.w3.org/2000/svg" xmlns:xlink="http://www.w3.org/1999/xlink" x="0px" y="0px"
	 width="835.45801px" height="359.98242px" viewBox="0 0 835.45801 359.98242" enable-background="new 0 0 835.45801 359.98242"
	 xml:space="preserve">
<g id="Black_Logo">
	<path id="Fohm" d="M809.34277,242.87988c-0.06543,0.06152-30.16211,36.47363-50.6875,36.34277
		c-12.01953-0.07617,35.99219-92.09473,29.82422-119.21582c-8.79395-38.66504-57.61816,2.52734-83.49609,39.66211
		c4.36426-13.08984,7.3584-24.0957,7.14941-34.26758c-1.02539-50.26172-65.46875-4.24316-111.22168,68.53516l30.65234-89.05273
		l-32.38086-0.08398c-2.8584,0.07715-5.28516,1.84277-6.29688,4.35645c-0.00488,0.0127-62.70508,130.67871-95.08203,130.23438
		c-13.4541-0.18652,51.08984-120.31836,22.08887-132.88477C481.79883,130,409.59717,239.00879,400.7124,252.11621
		l67.90186-201.79883c0,0-39.70996,0.02051-39.75684,0.02051c-3.14746,0-5.80859,2.0791-6.68652,4.93848
		c0,0-46.14404,135.94727-56.91748,160.68457c-13.74707,29.73535-41.92871,29.78027-40.59033,26.09668
		c30.51709-83.96387-17.90527-99.12402-33.74023-97.24316l-129.74072,6.32129
		c10.87109-38.84277,38.40381-97.70703,70.69238-98.66602c27.05469-0.80371,34.74609,27.13574,36.56104,44.44727
		c1.49365,14.24121,21.70703,12.55664,21.63037-1.19922c-0.0249-4.3916-2.6582-73.73828-48.59473-83.56348
		c-42.59668-9.1084-102.80176,46.14453-134.06445,141.38086c-20.74414,0.93848-40.50244,1.91504-40.63037,1.94434
		c-1.81738,0.18945-7.20215,2.74121-5.26807,9.45117l-0.00879,0.01367l15.36963,37.11523l19.646-3.69629
		c-2.25635,11.64355-23.20361,98.79883-81.24805,134.78809c-9.83887,6.09961-4.44092,22.86816,9.11133,19.44824
		c100.00391-25.24023,123.27295-139.83691,129.54883-164.27148l64.22949-11.89355
		c-62.33789,82.16699-28.24072,145.25781,16.16846,144.13477c42.88379-1.08496,71.021-40.31738,79.90918-57.19824
		c9.83447,1.97461,24.5166,0.625,35.1499-2.80078c0,0-18.61572,49.125-18.58252,53.10156
		c0.03662,4.27441,3.07471,7.1748,6.88721,7.23242l39.93262-0.00781c0,0,75.57275-114.50391,88.24072-111.88965
		c10.03125,2.07227-58.03662,111.5918,0.76758,111.89941c37.10938,0.19434,76.26562-40.84082,77.5498-42.125
		c0,0-11.52246,30.90234-12.26465,33.67285c-1.12305,4.18652,2.32227,8.44727,6.69336,8.43066
		c0.06445,0,28.66895-0.00977,28.66895-0.00977s76.125-117.58691,81.79199-111.69141
		c4.93164,5.13086-24.50293,59.35449-34.82031,102.92578c-1.28125,5.41602,2.87207,8.77539,6.73438,8.77539
		c0.06348,0,28.79004-0.00977,28.79004-0.00977c11.83887-20.72363,61.28809-105.13965,75.51562-111.6875
		c6.875-3.16406-9.35449,31.79883-17.13281,55.84473c-16.72656,51.70898,8.89062,55.49512,19.03711,55.84277
		c44.63184,1.53223,97.02637-62.32422,97.41113-62.78418C834.68848,246.07031,819.14551,233.61621,809.34277,242.87988z
		 M311.56982,192.76953c-35.43945,0.69922-40.64551,43.5752-19.98145,60.61133
		c-22.04297,50.49707-90.20605,72.97559-46.93115-27.24414C278.73389,147.22168,313.95508,165.1377,311.56982,192.76953z"/>
</g>
<g id="Blue_Logo" display="none">
	<path id="Fohm_1_" display="inline" fill="#4198D3" d="M809.34277,242.87988c-0.06543,0.06152-30.16211,36.47363-50.6875,36.34277
		c-12.01953-0.07617,35.99219-92.09473,29.82422-119.21582c-8.79395-38.66504-57.61816,2.52734-83.49609,39.66211
		c4.36426-13.08984,7.3584-24.0957,7.14941-34.26758c-1.02539-50.26172-65.46875-4.24316-111.22168,68.53516l30.65234-89.05273
		l-32.38086-0.08398c-2.8584,0.07715-5.28516,1.84277-6.29688,4.35645c-0.00488,0.0127-62.70508,130.67871-95.08203,130.23438
		c-13.4541-0.18652,51.08984-120.31836,22.08887-132.88477C481.79883,130,409.59717,239.00879,400.7124,252.11621
		l67.90186-201.79883c0,0-39.70996,0.02051-39.75684,0.02051c-3.14746,0-5.80859,2.0791-6.68652,4.93848
		c0,0-46.14404,135.94727-56.91748,160.68457c-13.74707,29.73535-41.92871,29.78027-40.59033,26.09668
		c30.51709-83.96387-17.90527-99.12402-33.74023-97.24316l-129.74072,6.32129
		c10.87109-38.84277,38.40381-97.70703,70.69238-98.66602c27.05469-0.80371,34.74609,27.13574,36.56104,44.44727
		c1.49365,14.24121,21.70703,12.55664,21.63037-1.19922c-0.0249-4.3916-2.6582-73.73828-48.59473-83.56348
		c-42.59668-9.1084-102.80176,46.14453-134.06445,141.38086c-20.74414,0.93848-40.50244,1.91504-40.63037,1.94434
		c-1.81738,0.18945-7.20215,2.74121-5.26807,9.45117l-0.00879,0.01367l15.36963,37.11523l19.646-3.69629
		c-2.25635,11.64355-23.20361,98.79883-81.24805,134.78809c-9.83887,6.09961-4.44092,22.86816,9.11133,19.44824
		c100.00391-25.24023,123.27295-139.83691,129.54883-164.27148l64.22949-11.89355
		c-62.33789,82.16699-28.24072,145.25781,16.16846,144.13477c42.88379-1.08496,71.021-40.31738,79.90918-57.19824
		c9.83447,1.97461,24.5166,0.625,35.1499-2.80078c0,0-18.61572,49.125-18.58252,53.10156
		c0.03662,4.27441,3.07471,7.1748,6.88721,7.23242l39.93262-0.00781c0,0,75.57275-114.50391,88.24072-111.88965
		c10.03125,2.07227-58.03662,111.5918,0.76758,111.89941c37.10938,0.19434,76.26562-40.84082,77.5498-42.125
		c0,0-11.52246,30.90234-12.26465,33.67285c-1.12305,4.18652,2.32227,8.44727,6.69336,8.43066
		c0.06445,0,28.66895-0.00977,28.66895-0.00977s76.125-117.58691,81.79199-111.69141
		c4.93164,5.13086-24.50293,59.35449-34.82031,102.92578c-1.28125,5.41602,2.87207,8.77539,6.73438,8.77539
		c0.06348,0,28.79004-0.00977,28.79004-0.00977c11.83887-20.72363,61.28809-105.13965,75.51562-111.6875
		c6.875-3.16406-9.35449,31.79883-17.13281,55.84473c-16.72656,51.70898,8.89062,55.49512,19.03711,55.84277
		c44.63184,1.53223,97.02637-62.32422,97.41113-62.78418C834.68848,246.07031,819.14551,233.61621,809.34277,242.87988z
		 M311.56982,192.76953c-35.43945,0.69922-40.64551,43.5752-19.98145,60.61133
		c-22.04297,50.49707-90.20605,72.97559-46.93115-27.24414C278.73389,147.22168,313.95508,165.1377,311.56982,192.76953z"/>
</g>
</svg>
