<?xml version="1.0" encoding="utf-8"?>
<!-- Generator: Adobe Illustrator 18.1.1, SVG Export Plug-In . SVG Version: 6.00 Build 0)  -->
<svg version="1.1" id="HIBR_Logo" xmlns="http://www.w3.org/2000/svg" xmlns:xlink="http://www.w3.org/1999/xlink" x="0px" y="0px"
	 viewBox="0 0 792 612" enable-background="new 0 0 792 612" xml:space="preserve">
<g>
	<path fill="#00BCB4" d="M220.9,135.8c-10.4,0-18.8,7.7-18.8,18.1l-0.1,167H66.8V135.8H48c-10.4,0-19,7.2-19,17.7v315.1
		C29,479,37.4,488,47.8,488h18V357.6h135.3v110.2c0,10.4,9.5,20.2,19.9,20.2h17.9V135.8C239,135.8,221,135.8,220.9,135.8z"/>
	<path fill="#00BCB4" d="M302.3,135.8c-10.4,0-18.6,7.2-18.6,17.6v314.9c0,10.4,8.2,19.6,18.7,19.6h18l-0.1-352.2
		C320.3,135.8,302.4,135.8,302.3,135.8z"/>
	<path fill="#00BCB4" d="M774.5,230.7c-0.1-69.7-55.5-95-125.3-95h-67.4c-10.9,0-18.7,7.3-18.7,17.5c0,0,0,97.2,0,183.7
		c-4.8-7.9-10.5-15.1-17.6-21.1c-9.9-8.4-24-15.8-42.3-22.1c14.8-8,26-18.5,33.6-31.3c7.6-12.9,11.4-27.2,11.4-42.8
		c0-16.8-4.3-32-13-45.8c-8.7-13.7-20.5-22.7-35.6-29.3c-15-6.6-36.5-8.8-64.5-8.8c0,0-50.7,0-50.7,0c-10.4,0-20.1,6.8-20.1,17.3
		c0,0,0,314.6,0,314.7c0,10.4,9.7,20.3,20.2,20.3h77.9c34.8,0,62.1-10.8,82.8-30.5c7.1-6.7,12.4-14.7,16.8-22.5v32
		c0,10.4,10,19.8,20.4,19.8c0.1,0,17.4,0,17.4,0V172h47.8c52.1,0,92.1,11.1,92.1,58.7c0,41.1-35.1,67.3-82.9,67.3L728.6,476
		c3,6.5,9.6,12,17.2,12h28.5L709,326.4C763.1,299.2,774.5,263.5,774.5,230.7z M400.5,171.9h27.8c43.6,0,84.9,4.3,84.9,53.8
		c0,36.4-46.2,54.1-84.8,54.1h-27.9L400.5,171.9L400.5,171.9z M461.7,449h-61.2V318.1h60.8c32.3,0,77.1,22.6,77.1,67.8
		C538.4,432.4,494.2,449,461.7,449z"/>
</g>
</svg>
