<?xml version="1.0" encoding="utf-8"?>
<!-- Generator: Adobe Illustrator 16.0.0, SVG Export Plug-In . SVG Version: 6.00 Build 0)  -->
<!DOCTYPE svg PUBLIC "-//W3C//DTD SVG 1.1//EN" "http://www.w3.org/Graphics/SVG/1.1/DTD/svg11.dtd">
<svg version="1.1" id="Layer_1" xmlns="http://www.w3.org/2000/svg" xmlns:xlink="http://www.w3.org/1999/xlink" x="0px" y="0px"
	 width="781.5px" height="327.5px" viewBox="0 0 781.5 327.5" enable-background="new 0 0 781.5 327.5" xml:space="preserve">
<path id="Fohm" fill="#4198D3" d="M763.609,221.835c-0.062,0.06-28.769,34.788-48.345,34.664
	c-11.464-0.073,34.328-87.839,28.445-113.706c-8.388-36.878-54.955,2.41-79.637,37.829c4.162-12.485,7.019-22.981,6.818-32.684
	c-0.978-47.938-62.441-4.047-106.08,65.366l29.236-84.936l-30.885-0.08c-2.727,0.074-5.04,1.757-6.006,4.155
	c-0.004,0.012-59.807,124.637-90.687,124.215c-12.833-0.179,48.729-114.757,21.067-126.743
	c-36.333-15.743-105.196,88.226-113.671,100.728l64.763-192.47c0,0-37.874,0.02-37.919,0.02c-3.001,0-5.54,1.983-6.377,4.71
	c0,0-44.011,129.662-54.287,153.257c-13.111,28.36-39.99,28.403-38.713,24.89c29.106-80.082-17.078-94.542-32.181-92.748
	l-123.743,6.029c10.368-37.047,36.628-93.19,67.424-94.105c25.804-0.767,33.14,25.881,34.871,42.393
	c1.425,13.583,20.703,11.976,20.63-1.144c-0.023-4.188-2.535-70.33-46.349-79.701C181.36-6.912,123.937,45.787,94.12,136.621
	c-19.785,0.895-38.63,1.827-38.752,1.854c-1.733,0.181-6.87,2.615-5.025,9.015l-0.008,0.013l14.66,35.399l18.738-3.523
	C81.58,190.481,61.6,273.61,6.239,307.934c-9.384,5.818-4.235,21.812,8.69,18.55c95.381-24.072,117.575-133.373,123.561-156.678
	l61.261-11.345c-59.457,78.369-26.936,138.544,15.421,137.473c40.901-1.034,67.738-38.452,76.215-54.554
	c9.38,1.883,23.383,0.596,33.525-2.672c0,0-17.756,46.855-17.724,50.648c0.034,4.075,2.933,6.842,6.569,6.897l38.086-0.008
	c0,0,72.08-109.211,84.162-106.719c9.567,1.977-55.354,106.434,0.731,106.729c35.395,0.185,72.741-38.954,73.965-40.179
	c0,0-10.988,29.475-11.697,32.116c-1.071,3.993,2.215,8.057,6.385,8.041c0.061,0,27.343-0.009,27.343-0.009
	s72.605-112.152,78.012-106.528c4.703,4.894-23.371,56.61-33.212,98.168c-1.221,5.166,2.741,8.369,6.425,8.369
	c0.06,0,27.459-0.009,27.459-0.009c11.291-19.767,58.454-100.28,72.024-106.524c6.557-3.018-8.923,30.329-16.341,53.263
	c-15.953,49.318,8.479,52.931,18.157,53.262c42.568,1.461,92.542-59.443,92.908-59.883C787.783,224.879,772.959,213,763.609,221.835
	z M288.845,174.042c-33.801,0.667-38.767,41.561-19.058,57.81c-21.024,48.161-86.036,69.602-44.762-25.985
	C257.527,130.599,291.121,147.687,288.845,174.042z"/>
</svg>
