<?xml version="1.0" encoding="utf-8"?>
<!-- Generator: Adobe Illustrator 16.0.0, SVG Export Plug-In . SVG Version: 6.00 Build 0)  -->
<!DOCTYPE svg PUBLIC "-//W3C//DTD SVG 1.1//EN" "http://www.w3.org/Graphics/SVG/1.1/DTD/svg11.dtd">
<svg version="1.1" id="Layer_1" xmlns="http://www.w3.org/2000/svg" xmlns:xlink="http://www.w3.org/1999/xlink" x="0px" y="0px"
	 width="781.5px" height="327.5px" viewBox="0 0 781.5 327.5" enable-background="new 0 0 781.5 327.5" xml:space="preserve">
<path id="Fohm" fill="#FFFFFF" d="M763.60938,221.83496c-0.0625,0.05957-28.76855,34.78809-48.34473,34.66406
	c-11.46387-0.07324,34.32812-87.83887,28.44531-113.70557c-8.3877-36.87793-54.95508,2.41016-79.63672,37.82861
	c4.16211-12.48535,7.01855-22.98145,6.81836-32.68359C669.91406,100,608.4502,143.89111,564.81152,213.30469l29.23633-84.93555
	l-30.88477-0.07959c-2.72656,0.07373-5.04004,1.75732-6.00586,4.15479c-0.00391,0.01221-59.80664,124.63672-90.68652,124.21484
	c-12.83301-0.17871,48.72852-114.75684,21.06738-126.74268c-36.33301-15.74316-105.19678,88.22607-113.6709,100.72803
	l64.7627-192.47021c0,0-37.87402,0.01953-37.91895,0.01953c-3.00098,0-5.54004,1.98291-6.37695,4.71045
	c0,0-44.01074,129.66211-54.28711,153.25684c-13.11084,28.36035-39.98975,28.40332-38.71338,24.88965
	c29.10645-80.08203-17.07764-94.5415-32.18066-92.74756l-123.74316,6.02881c10.36816-37.04688,36.62842-93.19043,67.42432-94.10498
	c25.8042-0.7666,33.14014,25.88135,34.87109,42.39258c1.4248,13.58301,20.70312,11.97607,20.63037-1.14355
	c-0.02344-4.18848-2.53516-70.32959-46.34863-79.70068c-40.62695-8.6875-98.0498,44.01123-127.86719,134.84521
	c-19.78516,0.89502-38.62988,1.82666-38.75195,1.85449c-1.7334,0.18066-6.86963,2.61475-5.0249,9.01465l-0.0083,0.0127
	l14.65967,35.39893l18.73779-3.52344c-2.15186,11.10352-22.13184,94.23242-77.49268,128.55566
	c-9.38379,5.81836-4.23535,21.8125,8.68994,18.5498c95.38135-24.07227,117.57471-133.37305,123.56055-156.67773l61.26074-11.34473
	c-59.45654,78.36914-26.93555,138.54395,15.4209,137.47266c40.90137-1.03418,67.73828-38.45215,76.21533-54.55371
	c9.37988,1.88281,23.3833,0.5957,33.5249-2.67188c0,0-17.75488,46.85547-17.72314,50.64844
	c0.03467,4.0752,2.93262,6.8418,6.56885,6.89746l38.08643-0.00781c0,0,72.08008-109.21094,84.16211-106.71875
	c9.56738,1.97656-55.35449,106.43359,0.73145,106.72852c35.39453,0.18457,72.74121-38.9541,73.96484-40.17871
	c0,0-10.98828,29.47461-11.69727,32.11621c-1.07129,3.99316,2.21484,8.05664,6.38477,8.04102
	c0.06055,0,27.34277-0.00879,27.34277-0.00879s72.60547-112.15234,78.01172-106.52832
	c4.70312,4.89355-23.37109,56.61035-33.21191,98.16797c-1.2207,5.16602,2.74121,8.36914,6.4248,8.36914
	c0.05957,0,27.45898-0.00879,27.45898-0.00879c11.29102-19.7666,58.4541-100.28027,72.02441-106.52441
	c6.55664-3.01758-8.92285,30.3291-16.34082,53.2627c-15.95312,49.31836,8.47949,52.93066,18.15723,53.26172
	c42.56836,1.46094,92.54199-59.44336,92.9082-59.88281C787.7832,224.87891,772.95898,213,763.60938,221.83496z M288.84521,174.04199
	c-33.80127,0.66699-38.76709,41.56055-19.05762,57.80957c-21.02393,48.16113-86.03613,69.60156-44.76221-25.98535
	C257.52734,130.59863,291.12061,147.68701,288.84521,174.04199z"/>
</svg>
